<svg width="50" height="50" viewBox="0 0 50 50" fill="none" xmlns="http://www.w3.org/2000/svg">
<g clip-path="url(#clip0_519_8026)">
<mask id="mask0_519_8026" style="mask-type:luminance" maskUnits="userSpaceOnUse" x="0" y="0" width="50" height="50">
<path d="M50 0H0V50H50V0Z" fill="white"/>
</mask>
<g mask="url(#mask0_519_8026)">
<path d="M32.358 19.4861C30.0521 20.4215 28.5439 22.8905 28.0781 24.008C33.3188 19.4861 39.1156 20.1789 40.3063 20.5775C43.8 21.7469 43.014 24.2418 43.014 26.035C46.2457 22.9944 45.7342 22.2878 47.2065 19.0962C48.4293 16.4455 45.809 10.4421 43.8874 8.96088C42.1988 8.727 39.0342 9.27262 38.9961 10.0524C38.9088 11.8456 35.2403 18.3165 32.358 19.4861Z" fill="#FF7F00"/>
<path d="M43.0126 7.71232C41.8246 7.40046 40.0137 8.36202 39.2567 8.88177C38.82 7.71232 32.5312 3.11251 23.9714 9.58349C16.5647 15.1829 22.9233 24.6305 26.5044 26.9694C23.4997 34.142 29.9109 42.4842 33.5792 45.0569C22.6787 44.3708 16.489 34.9476 14.8877 30.6337C15.5282 34.0121 16.8092 41.3926 26.5044 45.0569C34.2605 47.9883 38.2377 45.7586 39.2567 44.2773V32.8167C39.2567 31.0079 36.5199 31.0234 35.1515 31.2574V29.7761H50V31.2574C47.0653 31.1326 46.7391 32.2449 46.943 32.8167V46.4602C37.2477 51.294 26.0691 50.4364 16.8092 48.2534C8.86237 46.38 -1.24838 36.3665 0.126534 23.6169C1.50145 10.8674 8.25096 2.65846 22.3133 0.461839C39.8696 -2.28052 44.4974 8.10214 43.0126 7.71232Z" fill="#FF7F00"/>
<path d="M33.3189 12.2339C34.4766 12.2339 35.4152 11.3263 35.4152 10.2067C35.4152 9.08724 34.4766 8.17969 33.3189 8.17969C32.1612 8.17969 31.2227 9.08724 31.2227 10.2067C31.2227 11.3263 32.1612 12.2339 33.3189 12.2339Z" fill="#FF7F00"/>
</g>
</g>
<defs>
<clipPath id="clip0_519_8026">
<rect width="50" height="50" fill="white"/>
</clipPath>
</defs>
</svg>
